<svg xmlns="http://www.w3.org/2000/svg" width="1200" height="970" viewBox="0 0 1200 970">
<style>
:root { color-scheme: light dark; --bg:#f6f8fc;--panel:#fff;--row:#f0f4fb;--track:#dfe7f5;--border:#c7d3ea;--text:#172033;--muted:#55627c;--win:#23a566;--close:#f5a623;--gap:#e04848;--baseline:#7f93b8;--py:#306998;--goja:#c96b2e; }
@media(prefers-color-scheme:dark){:root{--bg:#0b1020;--panel:#11182b;--row:#0f1728;--track:#1c2740;--border:#25324f;--text:#e3ecff;--muted:#9db0d6;--win:#37c67e;--close:#f5a623;--gap:#f06060;--baseline:#7288b3;--py:#5b9bd5;--goja:#e8a04f;}}
svg{background:var(--bg)}.panel{fill:var(--panel);stroke:var(--border)}.row{fill:var(--row);stroke:var(--border)}
.text{fill:var(--text);font-family:Inter,system-ui,sans-serif}.muted{fill:var(--muted);font-family:Inter,system-ui,sans-serif}
.title{font-size:22px;font-weight:700}.subtitle{font-size:12px;font-weight:500}.label{font-size:12px;font-weight:600}.small{font-size:11px;font-weight:500}.tiny{font-size:10px}
.win{fill:var(--win)}.close{fill:var(--close)}.gap{fill:var(--gap)}.py{fill:var(--py)}.goja{fill:var(--goja)}
</style>
<rect x="0" y="0" width="1200" height="970" fill="var(--bg)"/><rect class="panel" x="20" y="20" width="1160" height="930" rx="14"/><text class="text title" x="40" y="56">Joker vs Python 3.13 vs Goja — CLBG benchmarks</text><text class="muted subtitle" x="40" y="76">Beat Python: 7/15 • Beat Goja: 13/15</text><text class="muted tiny" x="200" y="94">Joker ms</text><text class="muted tiny" x="280" y="94">Python ms</text><text class="muted tiny" x="370" y="94">Goja ms</text><text class="muted tiny" x="450" y="94">vs Python</text><text class="muted tiny" x="560" y="94">vs Goja</text><text class="muted tiny" x="660" y="94">ratio bar (log scale)</text><g transform="translate(32,100)"><rect class="row" x="0" y="0" width="1136" height="46" rx="6"/><text class="text label" x="10" y="28">tail-recursive-sum</text><text class="muted small" x="170" y="28">0.062</text><text class="muted small" x="260" y="28">5.04</text><text class="muted small" x="350" y="28">16.20</text><text class="win small" x="440" y="28">0.01×</text><text class="win small" x="550" y="28">0.00×</text><rect fill="var(--track)" x="640" y="14" width="500" height="18" rx="4"/><rect class="win" x="640" y="14" width="2" height="18" rx="4" opacity="0.8"/><line x1="913" y1="12" x2="913" y2="34" stroke="var(--text)" stroke-width="1" opacity="0.3"/></g><g transform="translate(32,154)"><rect class="row" x="0" y="0" width="1136" height="46" rx="6"/><text class="text label" x="10" y="28">arithmetic-loop</text><text class="muted small" x="170" y="28">0.237</text><text class="muted small" x="260" y="28">6.20</text><text class="muted small" x="350" y="28">21.80</text><text class="win small" x="440" y="28">0.04×</text><text class="win small" x="550" y="28">0.01×</text><rect fill="var(--track)" x="640" y="14" width="500" height="18" rx="4"/><rect class="win" x="640" y="14" width="59" height="18" rx="4" opacity="0.8"/><line x1="913" y1="12" x2="913" y2="34" stroke="var(--text)" stroke-width="1" opacity="0.3"/></g><g transform="translate(32,208)"><rect class="row" x="0" y="0" width="1136" height="46" rx="6"/><text class="text label" x="10" y="28">recursive-fib</text><text class="muted small" x="170" y="28">0.959</text><text class="muted small" x="260" y="28">15.00</text><text class="muted small" x="350" y="28">88.60</text><text class="win small" x="440" y="28">0.06×</text><text class="win small" x="550" y="28">0.01×</text><rect fill="var(--track)" x="640" y="14" width="500" height="18" rx="4"/><rect class="win" x="640" y="14" width="92" height="18" rx="4" opacity="0.8"/><line x1="913" y1="12" x2="913" y2="34" stroke="var(--text)" stroke-width="1" opacity="0.3"/></g><g transform="translate(32,262)"><rect class="row" x="0" y="0" width="1136" height="46" rx="6"/><text class="text label" x="10" y="28">pidigits</text><text class="muted small" x="170" y="28">0.016</text><text class="muted small" x="260" y="28">0.13</text><text class="muted small" x="350" y="28">0.23</text><text class="win small" x="440" y="28">0.12×</text><text class="win small" x="550" y="28">0.07×</text><rect fill="var(--track)" x="640" y="14" width="500" height="18" rx="4"/><rect class="win" x="640" y="14" width="135" height="18" rx="4" opacity="0.8"/><line x1="913" y1="12" x2="913" y2="34" stroke="var(--text)" stroke-width="1" opacity="0.3"/></g><g transform="translate(32,316)"><rect class="row" x="0" y="0" width="1136" height="46" rx="6"/><text class="text label" x="10" y="28">fasta</text><text class="muted small" x="170" y="28">0.066</text><text class="muted small" x="260" y="28">0.26</text><text class="muted small" x="350" y="28">0.59</text><text class="win small" x="440" y="28">0.25×</text><text class="win small" x="550" y="28">0.11×</text><rect fill="var(--track)" x="640" y="14" width="500" height="18" rx="4"/><rect class="win" x="640" y="14" width="183" height="18" rx="4" opacity="0.8"/><line x1="913" y1="12" x2="913" y2="34" stroke="var(--text)" stroke-width="1" opacity="0.3"/></g><g transform="translate(32,370)"><rect class="row" x="0" y="0" width="1136" height="46" rx="6"/><text class="text label" x="10" y="28">regex-redux</text><text class="muted small" x="170" y="28">0.083</text><text class="muted small" x="260" y="28">0.17</text><text class="muted small" x="350" y="28">0.20</text><text class="win small" x="440" y="28">0.49×</text><text class="win small" x="550" y="28">0.41×</text><rect fill="var(--track)" x="640" y="14" width="500" height="18" rx="4"/><rect class="win" x="640" y="14" width="226" height="18" rx="4" opacity="0.8"/><line x1="913" y1="12" x2="913" y2="34" stroke="var(--text)" stroke-width="1" opacity="0.3"/></g><g transform="translate(32,424)"><rect class="row" x="0" y="0" width="1136" height="46" rx="6"/><text class="text label" x="10" y="28">mandelbrot</text><text class="muted small" x="170" y="28">3.972</text><text class="muted small" x="260" y="28">4.97</text><text class="muted small" x="350" y="28">38.90</text><text class="win small" x="440" y="28">0.80×</text><text class="win small" x="550" y="28">0.10×</text><rect fill="var(--track)" x="640" y="14" width="500" height="18" rx="4"/><rect class="win" x="640" y="14" width="258" height="18" rx="4" opacity="0.8"/><line x1="913" y1="12" x2="913" y2="34" stroke="var(--text)" stroke-width="1" opacity="0.3"/></g><g transform="translate(32,478)"><rect class="row" x="0" y="0" width="1136" height="46" rx="6"/><text class="text label" x="10" y="28">spectral-norm</text><text class="muted small" x="170" y="28">17.350</text><text class="muted small" x="260" y="28">16.70</text><text class="muted small" x="350" y="28">74.30</text><text class="close small" x="440" y="28">1.04×</text><text class="win small" x="550" y="28">0.23×</text><rect fill="var(--track)" x="640" y="14" width="500" height="18" rx="4"/><rect class="close" x="640" y="14" width="275" height="18" rx="4" opacity="0.8"/><line x1="913" y1="12" x2="913" y2="34" stroke="var(--text)" stroke-width="1" opacity="0.3"/></g><g transform="translate(32,532)"><rect class="row" x="0" y="0" width="1136" height="46" rx="6"/><text class="text label" x="10" y="28">map-update-loop</text><text class="muted small" x="170" y="28">0.733</text><text class="muted small" x="260" y="28">0.55</text><text class="muted small" x="350" y="28">2.21</text><text class="close small" x="440" y="28">1.33×</text><text class="win small" x="550" y="28">0.33×</text><rect fill="var(--track)" x="640" y="14" width="500" height="18" rx="4"/><rect class="close" x="640" y="14" width="292" height="18" rx="4" opacity="0.8"/><line x1="913" y1="12" x2="913" y2="34" stroke="var(--text)" stroke-width="1" opacity="0.3"/></g><g transform="translate(32,586)"><rect class="row" x="0" y="0" width="1136" height="46" rx="6"/><text class="text label" x="10" y="28">reverse-complement</text><text class="muted small" x="170" y="28">0.043</text><text class="muted small" x="260" y="28">0.03</text><text class="muted small" x="350" y="28">0.13</text><text class="close small" x="440" y="28">1.43×</text><text class="win small" x="550" y="28">0.33×</text><rect fill="var(--track)" x="640" y="14" width="500" height="18" rx="4"/><rect class="close" x="640" y="14" width="296" height="18" rx="4" opacity="0.8"/><line x1="913" y1="12" x2="913" y2="34" stroke="var(--text)" stroke-width="1" opacity="0.3"/></g><g transform="translate(32,640)"><rect class="row" x="0" y="0" width="1136" height="46" rx="6"/><text class="text label" x="10" y="28">knucleotide</text><text class="muted small" x="170" y="28">0.251</text><text class="muted small" x="260" y="28">0.13</text><text class="muted small" x="350" y="28">0.51</text><text class="close small" x="440" y="28">1.93×</text><text class="win small" x="550" y="28">0.49×</text><rect fill="var(--track)" x="640" y="14" width="500" height="18" rx="4"/><rect class="close" x="640" y="14" width="316" height="18" rx="4" opacity="0.8"/><line x1="913" y1="12" x2="913" y2="34" stroke="var(--text)" stroke-width="1" opacity="0.3"/></g><g transform="translate(32,694)"><rect class="row" x="0" y="0" width="1136" height="46" rx="6"/><text class="text label" x="10" y="28">binary-trees</text><text class="muted small" x="170" y="28">78.270</text><text class="muted small" x="260" y="28">39.00</text><text class="muted small" x="350" y="28">148.10</text><text class="gap small" x="440" y="28">2.01×</text><text class="win small" x="550" y="28">0.53×</text><rect fill="var(--track)" x="640" y="14" width="500" height="18" rx="4"/><rect class="gap" x="640" y="14" width="318" height="18" rx="4" opacity="0.8"/><line x1="913" y1="12" x2="913" y2="34" stroke="var(--text)" stroke-width="1" opacity="0.3"/></g><g transform="translate(32,748)"><rect class="row" x="0" y="0" width="1136" height="46" rx="6"/><text class="text label" x="10" y="28">nbody</text><text class="muted small" x="170" y="28">1.765</text><text class="muted small" x="260" y="28">0.43</text><text class="muted small" x="350" y="28">5.20</text><text class="gap small" x="440" y="28">4.10×</text><text class="win small" x="550" y="28">0.34×</text><rect fill="var(--track)" x="640" y="14" width="500" height="18" rx="4"/><rect class="gap" x="640" y="14" width="365" height="18" rx="4" opacity="0.8"/><line x1="913" y1="12" x2="913" y2="34" stroke="var(--text)" stroke-width="1" opacity="0.3"/></g><g transform="translate(32,802)"><rect class="row" x="0" y="0" width="1136" height="46" rx="6"/><text class="text label" x="10" y="28">fannkuch</text><text class="muted small" x="170" y="28">33.700</text><text class="muted small" x="260" y="28">3.63</text><text class="muted small" x="350" y="28">20.30</text><text class="gap small" x="440" y="28">9.28×</text><text class="close small" x="550" y="28">1.66×</text><rect fill="var(--track)" x="640" y="14" width="500" height="18" rx="4"/><rect class="gap" x="640" y="14" width="419" height="18" rx="4" opacity="0.8"/><line x1="913" y1="12" x2="913" y2="34" stroke="var(--text)" stroke-width="1" opacity="0.3"/></g><g transform="translate(32,856)"><rect class="row" x="0" y="0" width="1136" height="46" rx="6"/><text class="text label" x="10" y="28">word-frequency</text><text class="muted small" x="170" y="28">13.600</text><text class="muted small" x="260" y="28">1.21</text><text class="muted small" x="350" y="28">2.09</text><text class="gap small" x="440" y="28">11.24×</text><text class="gap small" x="550" y="28">6.51×</text><rect fill="var(--track)" x="640" y="14" width="500" height="18" rx="4"/><rect class="gap" x="640" y="14" width="431" height="18" rx="4" opacity="0.8"/><line x1="913" y1="12" x2="913" y2="34" stroke="var(--text)" stroke-width="1" opacity="0.3"/></g></svg>